<?xml version="1.0" encoding="utf-8" standalone="no"?>
<!DOCTYPE svg PUBLIC "-//W3C//DTD SVG 1.1//EN"
  "http://www.w3.org/Graphics/SVG/1.1/DTD/svg11.dtd">
<!-- Created with matplotlib (https://matplotlib.org/) -->
<svg height="360pt" version="1.1" viewBox="0 0 648 360" width="648pt" xmlns="http://www.w3.org/2000/svg" xmlns:xlink="http://www.w3.org/1999/xlink">
 <metadata>
  <rdf:RDF xmlns:cc="http://creativecommons.org/ns#" xmlns:dc="http://purl.org/dc/elements/1.1/" xmlns:rdf="http://www.w3.org/1999/02/22-rdf-syntax-ns#">
   <cc:Work>
    <dc:type rdf:resource="http://purl.org/dc/dcmitype/StillImage"/>
    <dc:date>2021-09-19T20:19:15.906210</dc:date>
    <dc:format>image/svg+xml</dc:format>
    <dc:creator>
     <cc:Agent>
      <dc:title>Matplotlib v3.3.4, https://matplotlib.org/</dc:title>
     </cc:Agent>
    </dc:creator>
   </cc:Work>
  </rdf:RDF>
 </metadata>
 <defs>
  <style type="text/css">*{stroke-linecap:butt;stroke-linejoin:round;}</style>
 </defs>
 <g id="figure_1">
  <g id="patch_1">
   <path d="M 0 360 
L 648 360 
L 648 0 
L 0 0 
z
" style="fill:none;"/>
  </g>
  <g id="axes_1">
   <g id="patch_2">
    <path d="M 81 315 
L 583.2 315 
L 583.2 43.2 
L 81 43.2 
z
" style="fill:#ffffff;"/>
   </g>
   <g id="PolyCollection_1">
    <defs>
     <path d="M 103.827273 -316.8 
L 103.827273 -316.8 
L 160.895455 -316.8 
L 217.963636 -316.8 
L 275.031818 -316.8 
L 332.1 -316.8 
L 389.168182 -316.8 
L 446.236364 -316.8 
L 503.304545 -316.8 
L 560.372727 -316.8 
L 560.372727 -316.8 
L 560.372727 -316.8 
L 503.304545 -316.8 
L 446.236364 -316.8 
L 389.168182 -316.8 
L 332.1 -316.8 
L 275.031818 -316.8 
L 217.963636 -316.8 
L 160.895455 -316.8 
L 103.827273 -316.8 
z
" id="mdd35a3e47f" style="stroke:#1b9e77;stroke-opacity:0.2;"/>
    </defs>
    <g clip-path="url(#p803f6058ef)">
     <use style="fill:#1b9e77;fill-opacity:0.2;stroke:#1b9e77;stroke-opacity:0.2;" x="0" xlink:href="#mdd35a3e47f" y="360"/>
    </g>
   </g>
   <g id="PolyCollection_2">
    <defs>
     <path d="M 103.827273 -277.413559 
L 103.827273 -275.233143 
L 160.895455 -204.726907 
L 217.963636 -210.441257 
L 275.031818 -219.337972 
L 332.1 -171.695446 
L 389.168182 -173.951694 
L 446.236364 -151.780282 
L 503.304545 -148.490351 
L 560.372727 -162.830521 
L 560.372727 -171.053052 
L 560.372727 -171.053052 
L 503.304545 -154.460901 
L 446.236364 -158.322248 
L 389.168182 -183.265395 
L 332.1 -181.481168 
L 275.031818 -232.387817 
L 217.963636 -222.624365 
L 160.895455 -218.996537 
L 103.827273 -277.413559 
z
" id="m71b8b79da7" style="stroke:#d95f02;stroke-opacity:0.2;"/>
    </defs>
    <g clip-path="url(#p803f6058ef)">
     <use style="fill:#d95f02;fill-opacity:0.2;stroke:#d95f02;stroke-opacity:0.2;" x="0" xlink:href="#m71b8b79da7" y="360"/>
    </g>
   </g>
   <g id="PolyCollection_3">
    <defs>
     <path d="M 103.827273 -302.686598 
L 103.827273 -300.004639 
L 160.895455 -260.59811 
L 217.963636 -268.256773 
L 275.031818 -274.509498 
L 332.1 -244.327703 
L 389.168182 -246.749409 
L 446.236364 -235.582427 
L 503.304545 -223.404617 
L 560.372727 -234.805494 
L 560.372727 -254.616472 
L 560.372727 -254.616472 
L 503.304545 -246.314068 
L 446.236364 -258.477888 
L 389.168182 -265.333766 
L 332.1 -263.661291 
L 275.031818 -288.599661 
L 217.963636 -279.048841 
L 160.895455 -272.313523 
L 103.827273 -302.686598 
z
" id="ma3f2040e3e" style="stroke:#7570b3;stroke-opacity:0.2;"/>
    </defs>
    <g clip-path="url(#p803f6058ef)">
     <use style="fill:#7570b3;fill-opacity:0.2;stroke:#7570b3;stroke-opacity:0.2;" x="0" xlink:href="#ma3f2040e3e" y="360"/>
    </g>
   </g>
   <g id="PolyCollection_4">
    <defs>
     <path d="M 103.827273 -299.171186 
L 103.827273 -296.96223 
L 160.895455 -272.399274 
L 217.963636 -251.634639 
L 275.031818 -281.122937 
L 332.1 -254.849472 
L 389.168182 -266.581539 
L 446.236364 -254.045328 
L 503.304545 -245.135941 
L 560.372727 -253.184363 
L 560.372727 -268.642417 
L 560.372727 -268.642417 
L 503.304545 -264.823973 
L 446.236364 -276.45557 
L 389.168182 -282.717581 
L 332.1 -273.958628 
L 275.031818 -292.984596 
L 217.963636 -277.297038 
L 160.895455 -286.083843 
L 103.827273 -299.171186 
z
" id="mca741bd0a3" style="stroke:#e7298a;stroke-opacity:0.2;"/>
    </defs>
    <g clip-path="url(#p803f6058ef)">
     <use style="fill:#e7298a;fill-opacity:0.2;stroke:#e7298a;stroke-opacity:0.2;" x="0" xlink:href="#mca741bd0a3" y="360"/>
    </g>
   </g>
   <g id="PolyCollection_5">
    <defs>
     <path d="M 103.827273 -275.292819 
L 103.827273 -267.250018 
L 160.895455 -245.468825 
L 217.963636 -229.301936 
L 275.031818 -261.679467 
L 332.1 -232.278494 
L 389.168182 -232.628733 
L 446.236364 -182.090678 
L 503.304545 -175.366315 
L 560.372727 -213.477489 
L 560.372727 -233.855994 
L 560.372727 -233.855994 
L 503.304545 -221.821631 
L 446.236364 -208.759331 
L 389.168182 -242.534429 
L 332.1 -244.944298 
L 275.031818 -281.950102 
L 217.963636 -252.962835 
L 160.895455 -254.810115 
L 103.827273 -275.292819 
z
" id="ma232699688" style="stroke:#66a61e;stroke-opacity:0.2;"/>
    </defs>
    <g clip-path="url(#p803f6058ef)">
     <use style="fill:#66a61e;fill-opacity:0.2;stroke:#66a61e;stroke-opacity:0.2;" x="0" xlink:href="#ma232699688" y="360"/>
    </g>
   </g>
   <g id="PolyCollection_6">
    <defs>
     <path d="M 103.827273 -298.94248 
L 103.827273 -291.563789 
L 160.895455 -265.556062 
L 217.963636 -282.831854 
L 275.031818 -283.559814 
L 332.1 -251.041461 
L 389.168182 -247.791686 
L 446.236364 -227.025249 
L 503.304545 -224.651147 
L 560.372727 -246.194974 
L 560.372727 -264.743893 
L 560.372727 -264.743893 
L 503.304545 -256.139527 
L 446.236364 -261.267122 
L 389.168182 -272.780282 
L 332.1 -280.01427 
L 275.031818 -296.46333 
L 217.963636 -299.688169 
L 160.895455 -282.971054 
L 103.827273 -298.94248 
z
" id="me4392a82ae" style="stroke:#e6ab02;stroke-opacity:0.2;"/>
    </defs>
    <g clip-path="url(#p803f6058ef)">
     <use style="fill:#e6ab02;fill-opacity:0.2;stroke:#e6ab02;stroke-opacity:0.2;" x="0" xlink:href="#me4392a82ae" y="360"/>
    </g>
   </g>
   <g id="PolyCollection_7">
    <defs>
     <path d="M 103.827273 -281.801121 
L 103.827273 -275.211134 
L 160.895455 -244.83108 
L 217.963636 -264.647563 
L 275.031818 -257.089317 
L 332.1 -222.183774 
L 389.168182 -222.399115 
L 446.236364 -197.912938 
L 503.304545 -197.38696 
L 560.372727 -220.288501 
L 560.372727 -240.45821 
L 560.372727 -240.45821 
L 503.304545 -214.499792 
L 446.236364 -218.826501 
L 389.168182 -239.918465 
L 332.1 -252.670886 
L 275.031818 -273.51863 
L 217.963636 -277.779794 
L 160.895455 -257.831527 
L 103.827273 -281.801121 
z
" id="m0ee2ada48a" style="stroke:#a6761d;stroke-opacity:0.2;"/>
    </defs>
    <g clip-path="url(#p803f6058ef)">
     <use style="fill:#a6761d;fill-opacity:0.2;stroke:#a6761d;stroke-opacity:0.2;" x="0" xlink:href="#m0ee2ada48a" y="360"/>
    </g>
   </g>
   <g id="PolyCollection_8">
    <defs>
     <path d="M 103.827273 -292.310469 
L 103.827273 -289.330506 
L 160.895455 -237.525723 
L 217.963636 -237.447387 
L 275.031818 -257.345334 
L 332.1 -217.845384 
L 389.168182 -210.972554 
L 446.236364 -194.438918 
L 503.304545 -191.47381 
L 560.372727 -211.768949 
L 560.372727 -231.125006 
L 560.372727 -231.125006 
L 503.304545 -210.278486 
L 446.236364 -208.548173 
L 389.168182 -226.669795 
L 332.1 -231.966674 
L 275.031818 -271.320115 
L 217.963636 -264.360236 
L 160.895455 -250.945496 
L 103.827273 -292.310469 
z
" id="m4ccae1f552" style="stroke:#666666;stroke-opacity:0.2;"/>
    </defs>
    <g clip-path="url(#p803f6058ef)">
     <use style="fill:#666666;fill-opacity:0.2;stroke:#666666;stroke-opacity:0.2;" x="0" xlink:href="#m4ccae1f552" y="360"/>
    </g>
   </g>
   <g id="matplotlib.axis_1">
    <g id="xtick_1">
     <g id="line2d_1">
      <path clip-path="url(#p803f6058ef)" d="M 103.827273 315 
L 103.827273 43.2 
" style="fill:none;stroke:#b0b0b0;stroke-linecap:square;stroke-width:0.8;"/>
     </g>
     <g id="line2d_2">
      <defs>
       <path d="M 0 0 
L 0 3.5 
" id="m4afac03e51" style="stroke:#000000;stroke-width:0.8;"/>
      </defs>
      <g>
       <use style="stroke:#000000;stroke-width:0.8;" x="103.827273" xlink:href="#m4afac03e51" y="315"/>
      </g>
     </g>
     <g id="text_1">
      <!-- Val -->
      <g transform="translate(90.352585 335.677188)scale(0.18 -0.18)">
       <defs>
        <path d="M 28.609375 0 
L 0.78125 72.90625 
L 11.078125 72.90625 
L 34.1875 11.53125 
L 57.328125 72.90625 
L 67.578125 72.90625 
L 39.796875 0 
z
" id="DejaVuSans-86"/>
        <path d="M 34.28125 27.484375 
Q 23.390625 27.484375 19.1875 25 
Q 14.984375 22.515625 14.984375 16.5 
Q 14.984375 11.71875 18.140625 8.90625 
Q 21.296875 6.109375 26.703125 6.109375 
Q 34.1875 6.109375 38.703125 11.40625 
Q 43.21875 16.703125 43.21875 25.484375 
L 43.21875 27.484375 
z
M 52.203125 31.203125 
L 52.203125 0 
L 43.21875 0 
L 43.21875 8.296875 
Q 40.140625 3.328125 35.546875 0.953125 
Q 30.953125 -1.421875 24.3125 -1.421875 
Q 15.921875 -1.421875 10.953125 3.296875 
Q 6 8.015625 6 15.921875 
Q 6 25.140625 12.171875 29.828125 
Q 18.359375 34.515625 30.609375 34.515625 
L 43.21875 34.515625 
L 43.21875 35.40625 
Q 43.21875 41.609375 39.140625 45 
Q 35.0625 48.390625 27.6875 48.390625 
Q 23 48.390625 18.546875 47.265625 
Q 14.109375 46.140625 10.015625 43.890625 
L 10.015625 52.203125 
Q 14.9375 54.109375 19.578125 55.046875 
Q 24.21875 56 28.609375 56 
Q 40.484375 56 46.34375 49.84375 
Q 52.203125 43.703125 52.203125 31.203125 
z
" id="DejaVuSans-97"/>
        <path d="M 9.421875 75.984375 
L 18.40625 75.984375 
L 18.40625 0 
L 9.421875 0 
z
" id="DejaVuSans-108"/>
       </defs>
       <use xlink:href="#DejaVuSans-86"/>
       <use x="60.658203" xlink:href="#DejaVuSans-97"/>
       <use x="121.9375" xlink:href="#DejaVuSans-108"/>
      </g>
     </g>
    </g>
    <g id="xtick_2">
     <g id="line2d_3">
      <path clip-path="url(#p803f6058ef)" d="M 160.895455 315 
L 160.895455 43.2 
" style="fill:none;stroke:#b0b0b0;stroke-linecap:square;stroke-width:0.8;"/>
     </g>
     <g id="line2d_4">
      <g>
       <use style="stroke:#000000;stroke-width:0.8;" x="160.895455" xlink:href="#m4afac03e51" y="315"/>
      </g>
     </g>
     <g id="text_2">
      <!-- M. 11 -->
      <g transform="translate(135.957017 335.677188)scale(0.18 -0.18)">
       <defs>
        <path d="M 9.8125 72.90625 
L 24.515625 72.90625 
L 43.109375 23.296875 
L 61.8125 72.90625 
L 76.515625 72.90625 
L 76.515625 0 
L 66.890625 0 
L 66.890625 64.015625 
L 48.09375 14.015625 
L 38.1875 14.015625 
L 19.390625 64.015625 
L 19.390625 0 
L 9.8125 0 
z
" id="DejaVuSans-77"/>
        <path d="M 10.6875 12.40625 
L 21 12.40625 
L 21 0 
L 10.6875 0 
z
" id="DejaVuSans-46"/>
        <path id="DejaVuSans-32"/>
        <path d="M 12.40625 8.296875 
L 28.515625 8.296875 
L 28.515625 63.921875 
L 10.984375 60.40625 
L 10.984375 69.390625 
L 28.421875 72.90625 
L 38.28125 72.90625 
L 38.28125 8.296875 
L 54.390625 8.296875 
L 54.390625 0 
L 12.40625 0 
z
" id="DejaVuSans-49"/>
       </defs>
       <use xlink:href="#DejaVuSans-77"/>
       <use x="86.279297" xlink:href="#DejaVuSans-46"/>
       <use x="118.066406" xlink:href="#DejaVuSans-32"/>
       <use x="149.853516" xlink:href="#DejaVuSans-49"/>
       <use x="213.476562" xlink:href="#DejaVuSans-49"/>
      </g>
     </g>
    </g>
    <g id="xtick_3">
     <g id="line2d_5">
      <path clip-path="url(#p803f6058ef)" d="M 217.963636 315 
L 217.963636 43.2 
" style="fill:none;stroke:#b0b0b0;stroke-linecap:square;stroke-width:0.8;"/>
     </g>
     <g id="line2d_6">
      <g>
       <use style="stroke:#000000;stroke-width:0.8;" x="217.963636" xlink:href="#m4afac03e51" y="315"/>
      </g>
     </g>
     <g id="text_3">
      <!-- - - -->
      <g transform="translate(211.469574 335.677188)scale(0.18 -0.18)">
       <defs>
        <path d="M 4.890625 31.390625 
L 31.203125 31.390625 
L 31.203125 23.390625 
L 4.890625 23.390625 
z
" id="DejaVuSans-45"/>
       </defs>
       <use xlink:href="#DejaVuSans-45"/>
       <use x="36.083984" xlink:href="#DejaVuSans-45"/>
      </g>
     </g>
    </g>
    <g id="xtick_4">
     <g id="line2d_7">
      <path clip-path="url(#p803f6058ef)" d="M 275.031818 315 
L 275.031818 43.2 
" style="fill:none;stroke:#b0b0b0;stroke-linecap:square;stroke-width:0.8;"/>
     </g>
     <g id="line2d_8">
      <g>
       <use style="stroke:#000000;stroke-width:0.8;" x="275.031818" xlink:href="#m4afac03e51" y="315"/>
      </g>
     </g>
     <g id="text_4">
      <!-- - - -->
      <g transform="translate(268.537756 335.677188)scale(0.18 -0.18)">
       <use xlink:href="#DejaVuSans-45"/>
       <use x="36.083984" xlink:href="#DejaVuSans-45"/>
      </g>
     </g>
    </g>
    <g id="xtick_5">
     <g id="line2d_9">
      <path clip-path="url(#p803f6058ef)" d="M 332.1 315 
L 332.1 43.2 
" style="fill:none;stroke:#b0b0b0;stroke-linecap:square;stroke-width:0.8;"/>
     </g>
     <g id="line2d_10">
      <g>
       <use style="stroke:#000000;stroke-width:0.8;" x="332.1" xlink:href="#m4afac03e51" y="315"/>
      </g>
     </g>
     <g id="text_5">
      <!-- - - -->
      <g transform="translate(325.605938 335.677188)scale(0.18 -0.18)">
       <use xlink:href="#DejaVuSans-45"/>
       <use x="36.083984" xlink:href="#DejaVuSans-45"/>
      </g>
     </g>
    </g>
    <g id="xtick_6">
     <g id="line2d_11">
      <path clip-path="url(#p803f6058ef)" d="M 389.168182 315 
L 389.168182 43.2 
" style="fill:none;stroke:#b0b0b0;stroke-linecap:square;stroke-width:0.8;"/>
     </g>
     <g id="line2d_12">
      <g>
       <use style="stroke:#000000;stroke-width:0.8;" x="389.168182" xlink:href="#m4afac03e51" y="315"/>
      </g>
     </g>
     <g id="text_6">
      <!-- - - -->
      <g transform="translate(382.674119 335.677188)scale(0.18 -0.18)">
       <use xlink:href="#DejaVuSans-45"/>
       <use x="36.083984" xlink:href="#DejaVuSans-45"/>
      </g>
     </g>
    </g>
    <g id="xtick_7">
     <g id="line2d_13">
      <path clip-path="url(#p803f6058ef)" d="M 446.236364 315 
L 446.236364 43.2 
" style="fill:none;stroke:#b0b0b0;stroke-linecap:square;stroke-width:0.8;"/>
     </g>
     <g id="line2d_14">
      <g>
       <use style="stroke:#000000;stroke-width:0.8;" x="446.236364" xlink:href="#m4afac03e51" y="315"/>
      </g>
     </g>
     <g id="text_7">
      <!-- - - -->
      <g transform="translate(439.742301 335.677188)scale(0.18 -0.18)">
       <use xlink:href="#DejaVuSans-45"/>
       <use x="36.083984" xlink:href="#DejaVuSans-45"/>
      </g>
     </g>
    </g>
    <g id="xtick_8">
     <g id="line2d_15">
      <path clip-path="url(#p803f6058ef)" d="M 503.304545 315 
L 503.304545 43.2 
" style="fill:none;stroke:#b0b0b0;stroke-linecap:square;stroke-width:0.8;"/>
     </g>
     <g id="line2d_16">
      <g>
       <use style="stroke:#000000;stroke-width:0.8;" x="503.304545" xlink:href="#m4afac03e51" y="315"/>
      </g>
     </g>
     <g id="text_8">
      <!-- - - -->
      <g transform="translate(496.810483 335.677188)scale(0.18 -0.18)">
       <use xlink:href="#DejaVuSans-45"/>
       <use x="36.083984" xlink:href="#DejaVuSans-45"/>
      </g>
     </g>
    </g>
    <g id="xtick_9">
     <g id="line2d_17">
      <path clip-path="url(#p803f6058ef)" d="M 560.372727 315 
L 560.372727 43.2 
" style="fill:none;stroke:#b0b0b0;stroke-linecap:square;stroke-width:0.8;"/>
     </g>
     <g id="line2d_18">
      <g>
       <use style="stroke:#000000;stroke-width:0.8;" x="560.372727" xlink:href="#m4afac03e51" y="315"/>
      </g>
     </g>
     <g id="text_9">
      <!-- M. 36 -->
      <g transform="translate(535.43429 335.677188)scale(0.18 -0.18)">
       <defs>
        <path d="M 40.578125 39.3125 
Q 47.65625 37.796875 51.625 33 
Q 55.609375 28.21875 55.609375 21.1875 
Q 55.609375 10.40625 48.1875 4.484375 
Q 40.765625 -1.421875 27.09375 -1.421875 
Q 22.515625 -1.421875 17.65625 -0.515625 
Q 12.796875 0.390625 7.625 2.203125 
L 7.625 11.71875 
Q 11.71875 9.328125 16.59375 8.109375 
Q 21.484375 6.890625 26.8125 6.890625 
Q 36.078125 6.890625 40.9375 10.546875 
Q 45.796875 14.203125 45.796875 21.1875 
Q 45.796875 27.640625 41.28125 31.265625 
Q 36.765625 34.90625 28.71875 34.90625 
L 20.21875 34.90625 
L 20.21875 43.015625 
L 29.109375 43.015625 
Q 36.375 43.015625 40.234375 45.921875 
Q 44.09375 48.828125 44.09375 54.296875 
Q 44.09375 59.90625 40.109375 62.90625 
Q 36.140625 65.921875 28.71875 65.921875 
Q 24.65625 65.921875 20.015625 65.03125 
Q 15.375 64.15625 9.8125 62.3125 
L 9.8125 71.09375 
Q 15.4375 72.65625 20.34375 73.4375 
Q 25.25 74.21875 29.59375 74.21875 
Q 40.828125 74.21875 47.359375 69.109375 
Q 53.90625 64.015625 53.90625 55.328125 
Q 53.90625 49.265625 50.4375 45.09375 
Q 46.96875 40.921875 40.578125 39.3125 
z
" id="DejaVuSans-51"/>
        <path d="M 33.015625 40.375 
Q 26.375 40.375 22.484375 35.828125 
Q 18.609375 31.296875 18.609375 23.390625 
Q 18.609375 15.53125 22.484375 10.953125 
Q 26.375 6.390625 33.015625 6.390625 
Q 39.65625 6.390625 43.53125 10.953125 
Q 47.40625 15.53125 47.40625 23.390625 
Q 47.40625 31.296875 43.53125 35.828125 
Q 39.65625 40.375 33.015625 40.375 
z
M 52.59375 71.296875 
L 52.59375 62.3125 
Q 48.875 64.0625 45.09375 64.984375 
Q 41.3125 65.921875 37.59375 65.921875 
Q 27.828125 65.921875 22.671875 59.328125 
Q 17.53125 52.734375 16.796875 39.40625 
Q 19.671875 43.65625 24.015625 45.921875 
Q 28.375 48.1875 33.59375 48.1875 
Q 44.578125 48.1875 50.953125 41.515625 
Q 57.328125 34.859375 57.328125 23.390625 
Q 57.328125 12.15625 50.6875 5.359375 
Q 44.046875 -1.421875 33.015625 -1.421875 
Q 20.359375 -1.421875 13.671875 8.265625 
Q 6.984375 17.96875 6.984375 36.375 
Q 6.984375 53.65625 15.1875 63.9375 
Q 23.390625 74.21875 37.203125 74.21875 
Q 40.921875 74.21875 44.703125 73.484375 
Q 48.484375 72.75 52.59375 71.296875 
z
" id="DejaVuSans-54"/>
       </defs>
       <use xlink:href="#DejaVuSans-77"/>
       <use x="86.279297" xlink:href="#DejaVuSans-46"/>
       <use x="118.066406" xlink:href="#DejaVuSans-32"/>
       <use x="149.853516" xlink:href="#DejaVuSans-51"/>
       <use x="213.476562" xlink:href="#DejaVuSans-54"/>
      </g>
     </g>
    </g>
    <g id="text_10">
     <!-- Time -->
     <g transform="translate(310.079531 357.097812)scale(0.18 -0.18)">
      <defs>
       <path d="M -0.296875 72.90625 
L 61.375 72.90625 
L 61.375 64.59375 
L 35.5 64.59375 
L 35.5 0 
L 25.59375 0 
L 25.59375 64.59375 
L -0.296875 64.59375 
z
" id="DejaVuSans-84"/>
       <path d="M 9.421875 54.6875 
L 18.40625 54.6875 
L 18.40625 0 
L 9.421875 0 
z
M 9.421875 75.984375 
L 18.40625 75.984375 
L 18.40625 64.59375 
L 9.421875 64.59375 
z
" id="DejaVuSans-105"/>
       <path d="M 52 44.1875 
Q 55.375 50.25 60.0625 53.125 
Q 64.75 56 71.09375 56 
Q 79.640625 56 84.28125 50.015625 
Q 88.921875 44.046875 88.921875 33.015625 
L 88.921875 0 
L 79.890625 0 
L 79.890625 32.71875 
Q 79.890625 40.578125 77.09375 44.375 
Q 74.3125 48.1875 68.609375 48.1875 
Q 61.625 48.1875 57.5625 43.546875 
Q 53.515625 38.921875 53.515625 30.90625 
L 53.515625 0 
L 44.484375 0 
L 44.484375 32.71875 
Q 44.484375 40.625 41.703125 44.40625 
Q 38.921875 48.1875 33.109375 48.1875 
Q 26.21875 48.1875 22.15625 43.53125 
Q 18.109375 38.875 18.109375 30.90625 
L 18.109375 0 
L 9.078125 0 
L 9.078125 54.6875 
L 18.109375 54.6875 
L 18.109375 46.1875 
Q 21.1875 51.21875 25.484375 53.609375 
Q 29.78125 56 35.6875 56 
Q 41.65625 56 45.828125 52.96875 
Q 50 49.953125 52 44.1875 
z
" id="DejaVuSans-109"/>
       <path d="M 56.203125 29.59375 
L 56.203125 25.203125 
L 14.890625 25.203125 
Q 15.484375 15.921875 20.484375 11.0625 
Q 25.484375 6.203125 34.421875 6.203125 
Q 39.59375 6.203125 44.453125 7.46875 
Q 49.3125 8.734375 54.109375 11.28125 
L 54.109375 2.78125 
Q 49.265625 0.734375 44.1875 -0.34375 
Q 39.109375 -1.421875 33.890625 -1.421875 
Q 20.796875 -1.421875 13.15625 6.1875 
Q 5.515625 13.8125 5.515625 26.8125 
Q 5.515625 40.234375 12.765625 48.109375 
Q 20.015625 56 32.328125 56 
Q 43.359375 56 49.78125 48.890625 
Q 56.203125 41.796875 56.203125 29.59375 
z
M 47.21875 32.234375 
Q 47.125 39.59375 43.09375 43.984375 
Q 39.0625 48.390625 32.421875 48.390625 
Q 24.90625 48.390625 20.390625 44.140625 
Q 15.875 39.890625 15.1875 32.171875 
z
" id="DejaVuSans-101"/>
      </defs>
      <use xlink:href="#DejaVuSans-84"/>
      <use x="57.958984" xlink:href="#DejaVuSans-105"/>
      <use x="85.742188" xlink:href="#DejaVuSans-109"/>
      <use x="183.154297" xlink:href="#DejaVuSans-101"/>
     </g>
    </g>
   </g>
   <g id="matplotlib.axis_2">
    <g id="ytick_1">
     <g id="line2d_19">
      <path clip-path="url(#p803f6058ef)" d="M 81 315 
L 583.2 315 
" style="fill:none;stroke:#b0b0b0;stroke-linecap:square;stroke-width:0.8;"/>
     </g>
     <g id="line2d_20">
      <defs>
       <path d="M 0 0 
L -3.5 0 
" id="m073839c89a" style="stroke:#000000;stroke-width:0.8;"/>
      </defs>
      <g>
       <use style="stroke:#000000;stroke-width:0.8;" x="81" xlink:href="#m073839c89a" y="315"/>
      </g>
     </g>
     <g id="text_11">
      <!-- 0.0 -->
      <g transform="translate(45.374375 321.838594)scale(0.18 -0.18)">
       <defs>
        <path d="M 31.78125 66.40625 
Q 24.171875 66.40625 20.328125 58.90625 
Q 16.5 51.421875 16.5 36.375 
Q 16.5 21.390625 20.328125 13.890625 
Q 24.171875 6.390625 31.78125 6.390625 
Q 39.453125 6.390625 43.28125 13.890625 
Q 47.125 21.390625 47.125 36.375 
Q 47.125 51.421875 43.28125 58.90625 
Q 39.453125 66.40625 31.78125 66.40625 
z
M 31.78125 74.21875 
Q 44.046875 74.21875 50.515625 64.515625 
Q 56.984375 54.828125 56.984375 36.375 
Q 56.984375 17.96875 50.515625 8.265625 
Q 44.046875 -1.421875 31.78125 -1.421875 
Q 19.53125 -1.421875 13.0625 8.265625 
Q 6.59375 17.96875 6.59375 36.375 
Q 6.59375 54.828125 13.0625 64.515625 
Q 19.53125 74.21875 31.78125 74.21875 
z
" id="DejaVuSans-48"/>
       </defs>
       <use xlink:href="#DejaVuSans-48"/>
       <use x="63.623047" xlink:href="#DejaVuSans-46"/>
       <use x="95.410156" xlink:href="#DejaVuSans-48"/>
      </g>
     </g>
    </g>
    <g id="ytick_2">
     <g id="line2d_21">
      <path clip-path="url(#p803f6058ef)" d="M 81 260.64 
L 583.2 260.64 
" style="fill:none;stroke:#b0b0b0;stroke-linecap:square;stroke-width:0.8;"/>
     </g>
     <g id="line2d_22">
      <g>
       <use style="stroke:#000000;stroke-width:0.8;" x="81" xlink:href="#m073839c89a" y="260.64"/>
      </g>
     </g>
     <g id="text_12">
      <!-- 0.2 -->
      <g transform="translate(45.374375 267.478594)scale(0.18 -0.18)">
       <defs>
        <path d="M 19.1875 8.296875 
L 53.609375 8.296875 
L 53.609375 0 
L 7.328125 0 
L 7.328125 8.296875 
Q 12.9375 14.109375 22.625 23.890625 
Q 32.328125 33.6875 34.8125 36.53125 
Q 39.546875 41.84375 41.421875 45.53125 
Q 43.3125 49.21875 43.3125 52.78125 
Q 43.3125 58.59375 39.234375 62.25 
Q 35.15625 65.921875 28.609375 65.921875 
Q 23.96875 65.921875 18.8125 64.3125 
Q 13.671875 62.703125 7.8125 59.421875 
L 7.8125 69.390625 
Q 13.765625 71.78125 18.9375 73 
Q 24.125 74.21875 28.421875 74.21875 
Q 39.75 74.21875 46.484375 68.546875 
Q 53.21875 62.890625 53.21875 53.421875 
Q 53.21875 48.921875 51.53125 44.890625 
Q 49.859375 40.875 45.40625 35.40625 
Q 44.1875 33.984375 37.640625 27.21875 
Q 31.109375 20.453125 19.1875 8.296875 
z
" id="DejaVuSans-50"/>
       </defs>
       <use xlink:href="#DejaVuSans-48"/>
       <use x="63.623047" xlink:href="#DejaVuSans-46"/>
       <use x="95.410156" xlink:href="#DejaVuSans-50"/>
      </g>
     </g>
    </g>
    <g id="ytick_3">
     <g id="line2d_23">
      <path clip-path="url(#p803f6058ef)" d="M 81 206.28 
L 583.2 206.28 
" style="fill:none;stroke:#b0b0b0;stroke-linecap:square;stroke-width:0.8;"/>
     </g>
     <g id="line2d_24">
      <g>
       <use style="stroke:#000000;stroke-width:0.8;" x="81" xlink:href="#m073839c89a" y="206.28"/>
      </g>
     </g>
     <g id="text_13">
      <!-- 0.4 -->
      <g transform="translate(45.374375 213.118594)scale(0.18 -0.18)">
       <defs>
        <path d="M 37.796875 64.3125 
L 12.890625 25.390625 
L 37.796875 25.390625 
z
M 35.203125 72.90625 
L 47.609375 72.90625 
L 47.609375 25.390625 
L 58.015625 25.390625 
L 58.015625 17.1875 
L 47.609375 17.1875 
L 47.609375 0 
L 37.796875 0 
L 37.796875 17.1875 
L 4.890625 17.1875 
L 4.890625 26.703125 
z
" id="DejaVuSans-52"/>
       </defs>
       <use xlink:href="#DejaVuSans-48"/>
       <use x="63.623047" xlink:href="#DejaVuSans-46"/>
       <use x="95.410156" xlink:href="#DejaVuSans-52"/>
      </g>
     </g>
    </g>
    <g id="ytick_4">
     <g id="line2d_25">
      <path clip-path="url(#p803f6058ef)" d="M 81 151.92 
L 583.2 151.92 
" style="fill:none;stroke:#b0b0b0;stroke-linecap:square;stroke-width:0.8;"/>
     </g>
     <g id="line2d_26">
      <g>
       <use style="stroke:#000000;stroke-width:0.8;" x="81" xlink:href="#m073839c89a" y="151.92"/>
      </g>
     </g>
     <g id="text_14">
      <!-- 0.6 -->
      <g transform="translate(45.374375 158.758594)scale(0.18 -0.18)">
       <use xlink:href="#DejaVuSans-48"/>
       <use x="63.623047" xlink:href="#DejaVuSans-46"/>
       <use x="95.410156" xlink:href="#DejaVuSans-54"/>
      </g>
     </g>
    </g>
    <g id="ytick_5">
     <g id="line2d_27">
      <path clip-path="url(#p803f6058ef)" d="M 81 97.56 
L 583.2 97.56 
" style="fill:none;stroke:#b0b0b0;stroke-linecap:square;stroke-width:0.8;"/>
     </g>
     <g id="line2d_28">
      <g>
       <use style="stroke:#000000;stroke-width:0.8;" x="81" xlink:href="#m073839c89a" y="97.56"/>
      </g>
     </g>
     <g id="text_15">
      <!-- 0.8 -->
      <g transform="translate(45.374375 104.398594)scale(0.18 -0.18)">
       <defs>
        <path d="M 31.78125 34.625 
Q 24.75 34.625 20.71875 30.859375 
Q 16.703125 27.09375 16.703125 20.515625 
Q 16.703125 13.921875 20.71875 10.15625 
Q 24.75 6.390625 31.78125 6.390625 
Q 38.8125 6.390625 42.859375 10.171875 
Q 46.921875 13.96875 46.921875 20.515625 
Q 46.921875 27.09375 42.890625 30.859375 
Q 38.875 34.625 31.78125 34.625 
z
M 21.921875 38.8125 
Q 15.578125 40.375 12.03125 44.71875 
Q 8.5 49.078125 8.5 55.328125 
Q 8.5 64.0625 14.71875 69.140625 
Q 20.953125 74.21875 31.78125 74.21875 
Q 42.671875 74.21875 48.875 69.140625 
Q 55.078125 64.0625 55.078125 55.328125 
Q 55.078125 49.078125 51.53125 44.71875 
Q 48 40.375 41.703125 38.8125 
Q 48.828125 37.15625 52.796875 32.3125 
Q 56.78125 27.484375 56.78125 20.515625 
Q 56.78125 9.90625 50.3125 4.234375 
Q 43.84375 -1.421875 31.78125 -1.421875 
Q 19.734375 -1.421875 13.25 4.234375 
Q 6.78125 9.90625 6.78125 20.515625 
Q 6.78125 27.484375 10.78125 32.3125 
Q 14.796875 37.15625 21.921875 38.8125 
z
M 18.3125 54.390625 
Q 18.3125 48.734375 21.84375 45.5625 
Q 25.390625 42.390625 31.78125 42.390625 
Q 38.140625 42.390625 41.71875 45.5625 
Q 45.3125 48.734375 45.3125 54.390625 
Q 45.3125 60.0625 41.71875 63.234375 
Q 38.140625 66.40625 31.78125 66.40625 
Q 25.390625 66.40625 21.84375 63.234375 
Q 18.3125 60.0625 18.3125 54.390625 
z
" id="DejaVuSans-56"/>
       </defs>
       <use xlink:href="#DejaVuSans-48"/>
       <use x="63.623047" xlink:href="#DejaVuSans-46"/>
       <use x="95.410156" xlink:href="#DejaVuSans-56"/>
      </g>
     </g>
    </g>
    <g id="ytick_6">
     <g id="line2d_29">
      <path clip-path="url(#p803f6058ef)" d="M 81 43.2 
L 583.2 43.2 
" style="fill:none;stroke:#b0b0b0;stroke-linecap:square;stroke-width:0.8;"/>
     </g>
     <g id="line2d_30">
      <g>
       <use style="stroke:#000000;stroke-width:0.8;" x="81" xlink:href="#m073839c89a" y="43.2"/>
      </g>
     </g>
     <g id="text_16">
      <!-- 1.0 -->
      <g transform="translate(45.374375 50.038594)scale(0.18 -0.18)">
       <use xlink:href="#DejaVuSans-49"/>
       <use x="63.623047" xlink:href="#DejaVuSans-46"/>
       <use x="95.410156" xlink:href="#DejaVuSans-48"/>
      </g>
     </g>
    </g>
   </g>
   <g id="line2d_31">
    <path clip-path="url(#p803f6058ef)" d="M 103.827273 43.2 
L 160.895455 43.2 
L 217.963636 43.2 
L 275.031818 43.2 
L 332.1 43.2 
L 389.168182 43.2 
L 446.236364 43.2 
L 503.304545 43.2 
L 560.372727 43.2 
" style="fill:none;stroke:#1b9e77;stroke-dasharray:5.55,2.4;stroke-dashoffset:0;stroke-width:1.5;"/>
    <defs>
     <path d="M -3 3 
L 3 -3 
M -3 -3 
L 3 3 
" id="me16462e098" style="stroke:#1b9e77;"/>
    </defs>
    <g clip-path="url(#p803f6058ef)">
     <use style="fill:#1b9e77;stroke:#1b9e77;" x="103.827273" xlink:href="#me16462e098" y="43.2"/>
     <use style="fill:#1b9e77;stroke:#1b9e77;" x="160.895455" xlink:href="#me16462e098" y="43.2"/>
     <use style="fill:#1b9e77;stroke:#1b9e77;" x="217.963636" xlink:href="#me16462e098" y="43.2"/>
     <use style="fill:#1b9e77;stroke:#1b9e77;" x="275.031818" xlink:href="#me16462e098" y="43.2"/>
     <use style="fill:#1b9e77;stroke:#1b9e77;" x="332.1" xlink:href="#me16462e098" y="43.2"/>
     <use style="fill:#1b9e77;stroke:#1b9e77;" x="389.168182" xlink:href="#me16462e098" y="43.2"/>
     <use style="fill:#1b9e77;stroke:#1b9e77;" x="446.236364" xlink:href="#me16462e098" y="43.2"/>
     <use style="fill:#1b9e77;stroke:#1b9e77;" x="503.304545" xlink:href="#me16462e098" y="43.2"/>
     <use style="fill:#1b9e77;stroke:#1b9e77;" x="560.372727" xlink:href="#me16462e098" y="43.2"/>
    </g>
   </g>
   <g id="line2d_32">
    <path clip-path="url(#p803f6058ef)" d="M 103.827273 83.676649 
L 160.895455 148.138278 
L 217.963636 143.467189 
L 275.031818 134.137106 
L 332.1 183.411693 
L 389.168182 181.391455 
L 446.236364 204.948735 
L 503.304545 208.524374 
L 560.372727 193.058214 
" style="fill:none;stroke:#d95f02;stroke-dasharray:5.55,2.4;stroke-dashoffset:0;stroke-width:1.5;"/>
    <defs>
     <path d="M -3 3 
L 3 -3 
M -3 -3 
L 3 3 
" id="m185278de30" style="stroke:#d95f02;"/>
    </defs>
    <g clip-path="url(#p803f6058ef)">
     <use style="fill:#d95f02;stroke:#d95f02;" x="103.827273" xlink:href="#m185278de30" y="83.676649"/>
     <use style="fill:#d95f02;stroke:#d95f02;" x="160.895455" xlink:href="#m185278de30" y="148.138278"/>
     <use style="fill:#d95f02;stroke:#d95f02;" x="217.963636" xlink:href="#m185278de30" y="143.467189"/>
     <use style="fill:#d95f02;stroke:#d95f02;" x="275.031818" xlink:href="#m185278de30" y="134.137106"/>
     <use style="fill:#d95f02;stroke:#d95f02;" x="332.1" xlink:href="#m185278de30" y="183.411693"/>
     <use style="fill:#d95f02;stroke:#d95f02;" x="389.168182" xlink:href="#m185278de30" y="181.391455"/>
     <use style="fill:#d95f02;stroke:#d95f02;" x="446.236364" xlink:href="#m185278de30" y="204.948735"/>
     <use style="fill:#d95f02;stroke:#d95f02;" x="503.304545" xlink:href="#m185278de30" y="208.524374"/>
     <use style="fill:#d95f02;stroke:#d95f02;" x="560.372727" xlink:href="#m185278de30" y="193.058214"/>
    </g>
   </g>
   <g id="line2d_33">
    <path clip-path="url(#p803f6058ef)" d="M 103.827273 58.654381 
L 160.895455 93.544184 
L 217.963636 86.347193 
L 275.031818 78.445421 
L 332.1 106.005503 
L 389.168182 103.958412 
L 446.236364 112.969843 
L 503.304545 125.140657 
L 560.372727 115.289017 
" style="fill:none;stroke:#7570b3;stroke-dasharray:5.55,2.4;stroke-dashoffset:0;stroke-width:1.5;"/>
    <defs>
     <path d="M -3 3 
L 3 -3 
M -3 -3 
L 3 3 
" id="m52b5a0f320" style="stroke:#7570b3;"/>
    </defs>
    <g clip-path="url(#p803f6058ef)">
     <use style="fill:#7570b3;stroke:#7570b3;" x="103.827273" xlink:href="#m52b5a0f320" y="58.654381"/>
     <use style="fill:#7570b3;stroke:#7570b3;" x="160.895455" xlink:href="#m52b5a0f320" y="93.544184"/>
     <use style="fill:#7570b3;stroke:#7570b3;" x="217.963636" xlink:href="#m52b5a0f320" y="86.347193"/>
     <use style="fill:#7570b3;stroke:#7570b3;" x="275.031818" xlink:href="#m52b5a0f320" y="78.445421"/>
     <use style="fill:#7570b3;stroke:#7570b3;" x="332.1" xlink:href="#m52b5a0f320" y="106.005503"/>
     <use style="fill:#7570b3;stroke:#7570b3;" x="389.168182" xlink:href="#m52b5a0f320" y="103.958412"/>
     <use style="fill:#7570b3;stroke:#7570b3;" x="446.236364" xlink:href="#m52b5a0f320" y="112.969843"/>
     <use style="fill:#7570b3;stroke:#7570b3;" x="503.304545" xlink:href="#m52b5a0f320" y="125.140657"/>
     <use style="fill:#7570b3;stroke:#7570b3;" x="560.372727" xlink:href="#m52b5a0f320" y="115.289017"/>
    </g>
   </g>
   <g id="line2d_34">
    <path clip-path="url(#p803f6058ef)" d="M 103.827273 61.933292 
L 160.895455 80.758441 
L 217.963636 95.534161 
L 275.031818 72.946234 
L 332.1 95.59595 
L 389.168182 85.35044 
L 446.236364 94.749551 
L 503.304545 105.020043 
L 560.372727 99.08661 
" style="fill:none;stroke:#e7298a;stroke-dasharray:5.55,2.4;stroke-dashoffset:0;stroke-width:1.5;"/>
    <defs>
     <path d="M -3 3 
L 3 -3 
M -3 -3 
L 3 3 
" id="m1a80a96f90" style="stroke:#e7298a;"/>
    </defs>
    <g clip-path="url(#p803f6058ef)">
     <use style="fill:#e7298a;stroke:#e7298a;" x="103.827273" xlink:href="#m1a80a96f90" y="61.933292"/>
     <use style="fill:#e7298a;stroke:#e7298a;" x="160.895455" xlink:href="#m1a80a96f90" y="80.758441"/>
     <use style="fill:#e7298a;stroke:#e7298a;" x="217.963636" xlink:href="#m1a80a96f90" y="95.534161"/>
     <use style="fill:#e7298a;stroke:#e7298a;" x="275.031818" xlink:href="#m1a80a96f90" y="72.946234"/>
     <use style="fill:#e7298a;stroke:#e7298a;" x="332.1" xlink:href="#m1a80a96f90" y="95.59595"/>
     <use style="fill:#e7298a;stroke:#e7298a;" x="389.168182" xlink:href="#m1a80a96f90" y="85.35044"/>
     <use style="fill:#e7298a;stroke:#e7298a;" x="446.236364" xlink:href="#m1a80a96f90" y="94.749551"/>
     <use style="fill:#e7298a;stroke:#e7298a;" x="503.304545" xlink:href="#m1a80a96f90" y="105.020043"/>
     <use style="fill:#e7298a;stroke:#e7298a;" x="560.372727" xlink:href="#m1a80a96f90" y="99.08661"/>
    </g>
   </g>
   <g id="line2d_35">
    <path clip-path="url(#p803f6058ef)" d="M 103.827273 88.728581 
L 160.895455 109.86053 
L 217.963636 118.867615 
L 275.031818 88.185216 
L 332.1 121.388604 
L 389.168182 122.418419 
L 446.236364 164.574996 
L 503.304545 161.406027 
L 560.372727 136.333258 
" style="fill:none;stroke:#66a61e;stroke-dasharray:5.55,2.4;stroke-dashoffset:0;stroke-width:1.5;"/>
    <defs>
     <path d="M -3 3 
L 3 -3 
M -3 -3 
L 3 3 
" id="m70dac03e1b" style="stroke:#66a61e;"/>
    </defs>
    <g clip-path="url(#p803f6058ef)">
     <use style="fill:#66a61e;stroke:#66a61e;" x="103.827273" xlink:href="#m70dac03e1b" y="88.728581"/>
     <use style="fill:#66a61e;stroke:#66a61e;" x="160.895455" xlink:href="#m70dac03e1b" y="109.86053"/>
     <use style="fill:#66a61e;stroke:#66a61e;" x="217.963636" xlink:href="#m70dac03e1b" y="118.867615"/>
     <use style="fill:#66a61e;stroke:#66a61e;" x="275.031818" xlink:href="#m70dac03e1b" y="88.185216"/>
     <use style="fill:#66a61e;stroke:#66a61e;" x="332.1" xlink:href="#m70dac03e1b" y="121.388604"/>
     <use style="fill:#66a61e;stroke:#66a61e;" x="389.168182" xlink:href="#m70dac03e1b" y="122.418419"/>
     <use style="fill:#66a61e;stroke:#66a61e;" x="446.236364" xlink:href="#m70dac03e1b" y="164.574996"/>
     <use style="fill:#66a61e;stroke:#66a61e;" x="503.304545" xlink:href="#m70dac03e1b" y="161.406027"/>
     <use style="fill:#66a61e;stroke:#66a61e;" x="560.372727" xlink:href="#m70dac03e1b" y="136.333258"/>
    </g>
   </g>
   <g id="line2d_36">
    <path clip-path="url(#p803f6058ef)" d="M 103.827273 64.746866 
L 160.895455 85.736442 
L 217.963636 68.739988 
L 275.031818 69.988428 
L 332.1 94.472134 
L 389.168182 99.714016 
L 446.236364 115.853815 
L 503.304545 119.604663 
L 560.372727 104.530567 
" style="fill:none;stroke:#e6ab02;stroke-dasharray:5.55,2.4;stroke-dashoffset:0;stroke-width:1.5;"/>
    <defs>
     <path d="M -3 3 
L 3 -3 
M -3 -3 
L 3 3 
" id="m886be1d1b2" style="stroke:#e6ab02;"/>
    </defs>
    <g clip-path="url(#p803f6058ef)">
     <use style="fill:#e6ab02;stroke:#e6ab02;" x="103.827273" xlink:href="#m886be1d1b2" y="64.746866"/>
     <use style="fill:#e6ab02;stroke:#e6ab02;" x="160.895455" xlink:href="#m886be1d1b2" y="85.736442"/>
     <use style="fill:#e6ab02;stroke:#e6ab02;" x="217.963636" xlink:href="#m886be1d1b2" y="68.739988"/>
     <use style="fill:#e6ab02;stroke:#e6ab02;" x="275.031818" xlink:href="#m886be1d1b2" y="69.988428"/>
     <use style="fill:#e6ab02;stroke:#e6ab02;" x="332.1" xlink:href="#m886be1d1b2" y="94.472134"/>
     <use style="fill:#e6ab02;stroke:#e6ab02;" x="389.168182" xlink:href="#m886be1d1b2" y="99.714016"/>
     <use style="fill:#e6ab02;stroke:#e6ab02;" x="446.236364" xlink:href="#m886be1d1b2" y="115.853815"/>
     <use style="fill:#e6ab02;stroke:#e6ab02;" x="503.304545" xlink:href="#m886be1d1b2" y="119.604663"/>
     <use style="fill:#e6ab02;stroke:#e6ab02;" x="560.372727" xlink:href="#m886be1d1b2" y="104.530567"/>
    </g>
   </g>
   <g id="line2d_37">
    <path clip-path="url(#p803f6058ef)" d="M 103.827273 81.493872 
L 160.895455 108.668697 
L 217.963636 88.786321 
L 275.031818 94.696026 
L 332.1 122.57267 
L 389.168182 128.84121 
L 446.236364 151.63028 
L 503.304545 154.056624 
L 560.372727 129.626644 
" style="fill:none;stroke:#a6761d;stroke-dasharray:5.55,2.4;stroke-dashoffset:0;stroke-width:1.5;"/>
    <defs>
     <path d="M -3 3 
L 3 -3 
M -3 -3 
L 3 3 
" id="m7e52569c75" style="stroke:#a6761d;"/>
    </defs>
    <g clip-path="url(#p803f6058ef)">
     <use style="fill:#a6761d;stroke:#a6761d;" x="103.827273" xlink:href="#m7e52569c75" y="81.493872"/>
     <use style="fill:#a6761d;stroke:#a6761d;" x="160.895455" xlink:href="#m7e52569c75" y="108.668697"/>
     <use style="fill:#a6761d;stroke:#a6761d;" x="217.963636" xlink:href="#m7e52569c75" y="88.786321"/>
     <use style="fill:#a6761d;stroke:#a6761d;" x="275.031818" xlink:href="#m7e52569c75" y="94.696026"/>
     <use style="fill:#a6761d;stroke:#a6761d;" x="332.1" xlink:href="#m7e52569c75" y="122.57267"/>
     <use style="fill:#a6761d;stroke:#a6761d;" x="389.168182" xlink:href="#m7e52569c75" y="128.84121"/>
     <use style="fill:#a6761d;stroke:#a6761d;" x="446.236364" xlink:href="#m7e52569c75" y="151.63028"/>
     <use style="fill:#a6761d;stroke:#a6761d;" x="503.304545" xlink:href="#m7e52569c75" y="154.056624"/>
     <use style="fill:#a6761d;stroke:#a6761d;" x="560.372727" xlink:href="#m7e52569c75" y="129.626644"/>
    </g>
   </g>
   <g id="line2d_38">
    <path clip-path="url(#p803f6058ef)" d="M 103.827273 69.179512 
L 160.895455 115.764391 
L 217.963636 109.096188 
L 275.031818 95.667276 
L 332.1 135.093971 
L 389.168182 141.178825 
L 446.236364 158.506454 
L 503.304545 159.123852 
L 560.372727 138.553022 
" style="fill:none;stroke:#666666;stroke-dasharray:5.55,2.4;stroke-dashoffset:0;stroke-width:1.5;"/>
    <defs>
     <path d="M -3 3 
L 3 -3 
M -3 -3 
L 3 3 
" id="mcbdcd736cc" style="stroke:#666666;"/>
    </defs>
    <g clip-path="url(#p803f6058ef)">
     <use style="fill:#666666;stroke:#666666;" x="103.827273" xlink:href="#mcbdcd736cc" y="69.179512"/>
     <use style="fill:#666666;stroke:#666666;" x="160.895455" xlink:href="#mcbdcd736cc" y="115.764391"/>
     <use style="fill:#666666;stroke:#666666;" x="217.963636" xlink:href="#mcbdcd736cc" y="109.096188"/>
     <use style="fill:#666666;stroke:#666666;" x="275.031818" xlink:href="#mcbdcd736cc" y="95.667276"/>
     <use style="fill:#666666;stroke:#666666;" x="332.1" xlink:href="#mcbdcd736cc" y="135.093971"/>
     <use style="fill:#666666;stroke:#666666;" x="389.168182" xlink:href="#mcbdcd736cc" y="141.178825"/>
     <use style="fill:#666666;stroke:#666666;" x="446.236364" xlink:href="#mcbdcd736cc" y="158.506454"/>
     <use style="fill:#666666;stroke:#666666;" x="503.304545" xlink:href="#mcbdcd736cc" y="159.123852"/>
     <use style="fill:#666666;stroke:#666666;" x="560.372727" xlink:href="#mcbdcd736cc" y="138.553022"/>
    </g>
   </g>
   <g id="patch_3">
    <path d="M 81 315 
L 81 43.2 
" style="fill:none;stroke:#000000;stroke-linecap:square;stroke-linejoin:miter;stroke-width:0.8;"/>
   </g>
   <g id="patch_4">
    <path d="M 583.2 315 
L 583.2 43.2 
" style="fill:none;stroke:#000000;stroke-linecap:square;stroke-linejoin:miter;stroke-width:0.8;"/>
   </g>
   <g id="patch_5">
    <path d="M 81 315 
L 583.2 315 
" style="fill:none;stroke:#000000;stroke-linecap:square;stroke-linejoin:miter;stroke-width:0.8;"/>
   </g>
   <g id="patch_6">
    <path d="M 81 43.2 
L 583.2 43.2 
" style="fill:none;stroke:#000000;stroke-linecap:square;stroke-linejoin:miter;stroke-width:0.8;"/>
   </g>
   <g id="legend_1">
    <g id="patch_7">
     <path d="M 93.6 306 
L 461.753437 306 
Q 465.353437 306 465.353437 302.4 
L 465.353437 92.835 
Q 465.353437 89.235 461.753437 89.235 
L 93.6 89.235 
Q 90 89.235 90 92.835 
L 90 302.4 
Q 90 306 93.6 306 
z
" style="fill:#ffffff;opacity:0.8;stroke:#cccccc;stroke-linejoin:miter;"/>
    </g>
    <g id="line2d_39">
     <path d="M 97.2 103.812188 
L 133.2 103.812188 
" style="fill:none;stroke:#1b9e77;stroke-dasharray:5.55,2.4;stroke-dashoffset:0;stroke-width:1.5;"/>
    </g>
    <g id="line2d_40">
     <g>
      <use style="fill:#1b9e77;stroke:#1b9e77;" x="115.2" xlink:href="#me16462e098" y="103.812188"/>
     </g>
    </g>
    <g id="text_17">
     <!-- Confidence (Decision Tree) -->
     <g transform="translate(147.6 110.112188)scale(0.18 -0.18)">
      <defs>
       <path d="M 64.40625 67.28125 
L 64.40625 56.890625 
Q 59.421875 61.53125 53.78125 63.8125 
Q 48.140625 66.109375 41.796875 66.109375 
Q 29.296875 66.109375 22.65625 58.46875 
Q 16.015625 50.828125 16.015625 36.375 
Q 16.015625 21.96875 22.65625 14.328125 
Q 29.296875 6.6875 41.796875 6.6875 
Q 48.140625 6.6875 53.78125 8.984375 
Q 59.421875 11.28125 64.40625 15.921875 
L 64.40625 5.609375 
Q 59.234375 2.09375 53.4375 0.328125 
Q 47.65625 -1.421875 41.21875 -1.421875 
Q 24.65625 -1.421875 15.125 8.703125 
Q 5.609375 18.84375 5.609375 36.375 
Q 5.609375 53.953125 15.125 64.078125 
Q 24.65625 74.21875 41.21875 74.21875 
Q 47.75 74.21875 53.53125 72.484375 
Q 59.328125 70.75 64.40625 67.28125 
z
" id="DejaVuSans-67"/>
       <path d="M 30.609375 48.390625 
Q 23.390625 48.390625 19.1875 42.75 
Q 14.984375 37.109375 14.984375 27.296875 
Q 14.984375 17.484375 19.15625 11.84375 
Q 23.34375 6.203125 30.609375 6.203125 
Q 37.796875 6.203125 41.984375 11.859375 
Q 46.1875 17.53125 46.1875 27.296875 
Q 46.1875 37.015625 41.984375 42.703125 
Q 37.796875 48.390625 30.609375 48.390625 
z
M 30.609375 56 
Q 42.328125 56 49.015625 48.375 
Q 55.71875 40.765625 55.71875 27.296875 
Q 55.71875 13.875 49.015625 6.21875 
Q 42.328125 -1.421875 30.609375 -1.421875 
Q 18.84375 -1.421875 12.171875 6.21875 
Q 5.515625 13.875 5.515625 27.296875 
Q 5.515625 40.765625 12.171875 48.375 
Q 18.84375 56 30.609375 56 
z
" id="DejaVuSans-111"/>
       <path d="M 54.890625 33.015625 
L 54.890625 0 
L 45.90625 0 
L 45.90625 32.71875 
Q 45.90625 40.484375 42.875 44.328125 
Q 39.84375 48.1875 33.796875 48.1875 
Q 26.515625 48.1875 22.3125 43.546875 
Q 18.109375 38.921875 18.109375 30.90625 
L 18.109375 0 
L 9.078125 0 
L 9.078125 54.6875 
L 18.109375 54.6875 
L 18.109375 46.1875 
Q 21.34375 51.125 25.703125 53.5625 
Q 30.078125 56 35.796875 56 
Q 45.21875 56 50.046875 50.171875 
Q 54.890625 44.34375 54.890625 33.015625 
z
" id="DejaVuSans-110"/>
       <path d="M 37.109375 75.984375 
L 37.109375 68.5 
L 28.515625 68.5 
Q 23.6875 68.5 21.796875 66.546875 
Q 19.921875 64.59375 19.921875 59.515625 
L 19.921875 54.6875 
L 34.71875 54.6875 
L 34.71875 47.703125 
L 19.921875 47.703125 
L 19.921875 0 
L 10.890625 0 
L 10.890625 47.703125 
L 2.296875 47.703125 
L 2.296875 54.6875 
L 10.890625 54.6875 
L 10.890625 58.5 
Q 10.890625 67.625 15.140625 71.796875 
Q 19.390625 75.984375 28.609375 75.984375 
z
" id="DejaVuSans-102"/>
       <path d="M 45.40625 46.390625 
L 45.40625 75.984375 
L 54.390625 75.984375 
L 54.390625 0 
L 45.40625 0 
L 45.40625 8.203125 
Q 42.578125 3.328125 38.25 0.953125 
Q 33.9375 -1.421875 27.875 -1.421875 
Q 17.96875 -1.421875 11.734375 6.484375 
Q 5.515625 14.40625 5.515625 27.296875 
Q 5.515625 40.1875 11.734375 48.09375 
Q 17.96875 56 27.875 56 
Q 33.9375 56 38.25 53.625 
Q 42.578125 51.265625 45.40625 46.390625 
z
M 14.796875 27.296875 
Q 14.796875 17.390625 18.875 11.75 
Q 22.953125 6.109375 30.078125 6.109375 
Q 37.203125 6.109375 41.296875 11.75 
Q 45.40625 17.390625 45.40625 27.296875 
Q 45.40625 37.203125 41.296875 42.84375 
Q 37.203125 48.484375 30.078125 48.484375 
Q 22.953125 48.484375 18.875 42.84375 
Q 14.796875 37.203125 14.796875 27.296875 
z
" id="DejaVuSans-100"/>
       <path d="M 48.78125 52.59375 
L 48.78125 44.1875 
Q 44.96875 46.296875 41.140625 47.34375 
Q 37.3125 48.390625 33.40625 48.390625 
Q 24.65625 48.390625 19.8125 42.84375 
Q 14.984375 37.3125 14.984375 27.296875 
Q 14.984375 17.28125 19.8125 11.734375 
Q 24.65625 6.203125 33.40625 6.203125 
Q 37.3125 6.203125 41.140625 7.25 
Q 44.96875 8.296875 48.78125 10.40625 
L 48.78125 2.09375 
Q 45.015625 0.34375 40.984375 -0.53125 
Q 36.96875 -1.421875 32.421875 -1.421875 
Q 20.0625 -1.421875 12.78125 6.34375 
Q 5.515625 14.109375 5.515625 27.296875 
Q 5.515625 40.671875 12.859375 48.328125 
Q 20.21875 56 33.015625 56 
Q 37.15625 56 41.109375 55.140625 
Q 45.0625 54.296875 48.78125 52.59375 
z
" id="DejaVuSans-99"/>
       <path d="M 31 75.875 
Q 24.46875 64.65625 21.28125 53.65625 
Q 18.109375 42.671875 18.109375 31.390625 
Q 18.109375 20.125 21.3125 9.0625 
Q 24.515625 -2 31 -13.1875 
L 23.1875 -13.1875 
Q 15.875 -1.703125 12.234375 9.375 
Q 8.59375 20.453125 8.59375 31.390625 
Q 8.59375 42.28125 12.203125 53.3125 
Q 15.828125 64.359375 23.1875 75.875 
z
" id="DejaVuSans-40"/>
       <path d="M 19.671875 64.796875 
L 19.671875 8.109375 
L 31.59375 8.109375 
Q 46.6875 8.109375 53.6875 14.9375 
Q 60.6875 21.78125 60.6875 36.53125 
Q 60.6875 51.171875 53.6875 57.984375 
Q 46.6875 64.796875 31.59375 64.796875 
z
M 9.8125 72.90625 
L 30.078125 72.90625 
Q 51.265625 72.90625 61.171875 64.09375 
Q 71.09375 55.28125 71.09375 36.53125 
Q 71.09375 17.671875 61.125 8.828125 
Q 51.171875 0 30.078125 0 
L 9.8125 0 
z
" id="DejaVuSans-68"/>
       <path d="M 44.28125 53.078125 
L 44.28125 44.578125 
Q 40.484375 46.53125 36.375 47.5 
Q 32.28125 48.484375 27.875 48.484375 
Q 21.1875 48.484375 17.84375 46.4375 
Q 14.5 44.390625 14.5 40.28125 
Q 14.5 37.15625 16.890625 35.375 
Q 19.28125 33.59375 26.515625 31.984375 
L 29.59375 31.296875 
Q 39.15625 29.25 43.1875 25.515625 
Q 47.21875 21.78125 47.21875 15.09375 
Q 47.21875 7.46875 41.1875 3.015625 
Q 35.15625 -1.421875 24.609375 -1.421875 
Q 20.21875 -1.421875 15.453125 -0.5625 
Q 10.6875 0.296875 5.421875 2 
L 5.421875 11.28125 
Q 10.40625 8.6875 15.234375 7.390625 
Q 20.0625 6.109375 24.8125 6.109375 
Q 31.15625 6.109375 34.5625 8.28125 
Q 37.984375 10.453125 37.984375 14.40625 
Q 37.984375 18.0625 35.515625 20.015625 
Q 33.0625 21.96875 24.703125 23.78125 
L 21.578125 24.515625 
Q 13.234375 26.265625 9.515625 29.90625 
Q 5.8125 33.546875 5.8125 39.890625 
Q 5.8125 47.609375 11.28125 51.796875 
Q 16.75 56 26.8125 56 
Q 31.78125 56 36.171875 55.265625 
Q 40.578125 54.546875 44.28125 53.078125 
z
" id="DejaVuSans-115"/>
       <path d="M 41.109375 46.296875 
Q 39.59375 47.171875 37.8125 47.578125 
Q 36.03125 48 33.890625 48 
Q 26.265625 48 22.1875 43.046875 
Q 18.109375 38.09375 18.109375 28.8125 
L 18.109375 0 
L 9.078125 0 
L 9.078125 54.6875 
L 18.109375 54.6875 
L 18.109375 46.1875 
Q 20.953125 51.171875 25.484375 53.578125 
Q 30.03125 56 36.53125 56 
Q 37.453125 56 38.578125 55.875 
Q 39.703125 55.765625 41.0625 55.515625 
z
" id="DejaVuSans-114"/>
       <path d="M 8.015625 75.875 
L 15.828125 75.875 
Q 23.140625 64.359375 26.78125 53.3125 
Q 30.421875 42.28125 30.421875 31.390625 
Q 30.421875 20.453125 26.78125 9.375 
Q 23.140625 -1.703125 15.828125 -13.1875 
L 8.015625 -13.1875 
Q 14.5 -2 17.703125 9.0625 
Q 20.90625 20.125 20.90625 31.390625 
Q 20.90625 42.671875 17.703125 53.65625 
Q 14.5 64.65625 8.015625 75.875 
z
" id="DejaVuSans-41"/>
      </defs>
      <use xlink:href="#DejaVuSans-67"/>
      <use x="69.824219" xlink:href="#DejaVuSans-111"/>
      <use x="131.005859" xlink:href="#DejaVuSans-110"/>
      <use x="194.384766" xlink:href="#DejaVuSans-102"/>
      <use x="229.589844" xlink:href="#DejaVuSans-105"/>
      <use x="257.373047" xlink:href="#DejaVuSans-100"/>
      <use x="320.849609" xlink:href="#DejaVuSans-101"/>
      <use x="382.373047" xlink:href="#DejaVuSans-110"/>
      <use x="445.751953" xlink:href="#DejaVuSans-99"/>
      <use x="500.732422" xlink:href="#DejaVuSans-101"/>
      <use x="562.255859" xlink:href="#DejaVuSans-32"/>
      <use x="594.042969" xlink:href="#DejaVuSans-40"/>
      <use x="633.056641" xlink:href="#DejaVuSans-68"/>
      <use x="710.058594" xlink:href="#DejaVuSans-101"/>
      <use x="771.582031" xlink:href="#DejaVuSans-99"/>
      <use x="826.5625" xlink:href="#DejaVuSans-105"/>
      <use x="854.345703" xlink:href="#DejaVuSans-115"/>
      <use x="906.445312" xlink:href="#DejaVuSans-105"/>
      <use x="934.228516" xlink:href="#DejaVuSans-111"/>
      <use x="995.410156" xlink:href="#DejaVuSans-110"/>
      <use x="1058.789062" xlink:href="#DejaVuSans-32"/>
      <use x="1090.576172" xlink:href="#DejaVuSans-84"/>
      <use x="1136.910156" xlink:href="#DejaVuSans-114"/>
      <use x="1175.773438" xlink:href="#DejaVuSans-101"/>
      <use x="1237.296875" xlink:href="#DejaVuSans-101"/>
      <use x="1298.820312" xlink:href="#DejaVuSans-41"/>
     </g>
    </g>
    <g id="line2d_41">
     <path d="M 97.2 130.232813 
L 133.2 130.232813 
" style="fill:none;stroke:#d95f02;stroke-dasharray:5.55,2.4;stroke-dashoffset:0;stroke-width:1.5;"/>
    </g>
    <g id="line2d_42">
     <g>
      <use style="fill:#d95f02;stroke:#d95f02;" x="115.2" xlink:href="#m185278de30" y="130.232813"/>
     </g>
    </g>
    <g id="text_18">
     <!-- Confidence (Random Forest (100)) -->
     <g transform="translate(147.6 136.532813)scale(0.18 -0.18)">
      <defs>
       <path d="M 44.390625 34.1875 
Q 47.5625 33.109375 50.5625 29.59375 
Q 53.5625 26.078125 56.59375 19.921875 
L 66.609375 0 
L 56 0 
L 46.6875 18.703125 
Q 43.0625 26.03125 39.671875 28.421875 
Q 36.28125 30.8125 30.421875 30.8125 
L 19.671875 30.8125 
L 19.671875 0 
L 9.8125 0 
L 9.8125 72.90625 
L 32.078125 72.90625 
Q 44.578125 72.90625 50.734375 67.671875 
Q 56.890625 62.453125 56.890625 51.90625 
Q 56.890625 45.015625 53.6875 40.46875 
Q 50.484375 35.9375 44.390625 34.1875 
z
M 19.671875 64.796875 
L 19.671875 38.921875 
L 32.078125 38.921875 
Q 39.203125 38.921875 42.84375 42.21875 
Q 46.484375 45.515625 46.484375 51.90625 
Q 46.484375 58.296875 42.84375 61.546875 
Q 39.203125 64.796875 32.078125 64.796875 
z
" id="DejaVuSans-82"/>
       <path d="M 9.8125 72.90625 
L 51.703125 72.90625 
L 51.703125 64.59375 
L 19.671875 64.59375 
L 19.671875 43.109375 
L 48.578125 43.109375 
L 48.578125 34.8125 
L 19.671875 34.8125 
L 19.671875 0 
L 9.8125 0 
z
" id="DejaVuSans-70"/>
       <path d="M 18.3125 70.21875 
L 18.3125 54.6875 
L 36.8125 54.6875 
L 36.8125 47.703125 
L 18.3125 47.703125 
L 18.3125 18.015625 
Q 18.3125 11.328125 20.140625 9.421875 
Q 21.96875 7.515625 27.59375 7.515625 
L 36.8125 7.515625 
L 36.8125 0 
L 27.59375 0 
Q 17.1875 0 13.234375 3.875 
Q 9.28125 7.765625 9.28125 18.015625 
L 9.28125 47.703125 
L 2.6875 47.703125 
L 2.6875 54.6875 
L 9.28125 54.6875 
L 9.28125 70.21875 
z
" id="DejaVuSans-116"/>
      </defs>
      <use xlink:href="#DejaVuSans-67"/>
      <use x="69.824219" xlink:href="#DejaVuSans-111"/>
      <use x="131.005859" xlink:href="#DejaVuSans-110"/>
      <use x="194.384766" xlink:href="#DejaVuSans-102"/>
      <use x="229.589844" xlink:href="#DejaVuSans-105"/>
      <use x="257.373047" xlink:href="#DejaVuSans-100"/>
      <use x="320.849609" xlink:href="#DejaVuSans-101"/>
      <use x="382.373047" xlink:href="#DejaVuSans-110"/>
      <use x="445.751953" xlink:href="#DejaVuSans-99"/>
      <use x="500.732422" xlink:href="#DejaVuSans-101"/>
      <use x="562.255859" xlink:href="#DejaVuSans-32"/>
      <use x="594.042969" xlink:href="#DejaVuSans-40"/>
      <use x="633.056641" xlink:href="#DejaVuSans-82"/>
      <use x="700.289062" xlink:href="#DejaVuSans-97"/>
      <use x="761.568359" xlink:href="#DejaVuSans-110"/>
      <use x="824.947266" xlink:href="#DejaVuSans-100"/>
      <use x="888.423828" xlink:href="#DejaVuSans-111"/>
      <use x="949.605469" xlink:href="#DejaVuSans-109"/>
      <use x="1047.017578" xlink:href="#DejaVuSans-32"/>
      <use x="1078.804688" xlink:href="#DejaVuSans-70"/>
      <use x="1132.699219" xlink:href="#DejaVuSans-111"/>
      <use x="1193.880859" xlink:href="#DejaVuSans-114"/>
      <use x="1232.744141" xlink:href="#DejaVuSans-101"/>
      <use x="1294.267578" xlink:href="#DejaVuSans-115"/>
      <use x="1346.367188" xlink:href="#DejaVuSans-116"/>
      <use x="1385.576172" xlink:href="#DejaVuSans-32"/>
      <use x="1417.363281" xlink:href="#DejaVuSans-40"/>
      <use x="1456.376953" xlink:href="#DejaVuSans-49"/>
      <use x="1520" xlink:href="#DejaVuSans-48"/>
      <use x="1583.623047" xlink:href="#DejaVuSans-48"/>
      <use x="1647.246094" xlink:href="#DejaVuSans-41"/>
      <use x="1686.259766" xlink:href="#DejaVuSans-41"/>
     </g>
    </g>
    <g id="line2d_43">
     <path d="M 97.2 156.653437 
L 133.2 156.653437 
" style="fill:none;stroke:#7570b3;stroke-dasharray:5.55,2.4;stroke-dashoffset:0;stroke-width:1.5;"/>
    </g>
    <g id="line2d_44">
     <g>
      <use style="fill:#7570b3;stroke:#7570b3;" x="115.2" xlink:href="#m52b5a0f320" y="156.653437"/>
     </g>
    </g>
    <g id="text_19">
     <!-- Confidence (XGBoost) -->
     <g transform="translate(147.6 162.953438)scale(0.18 -0.18)">
      <defs>
       <path d="M 6.296875 72.90625 
L 16.890625 72.90625 
L 35.015625 45.796875 
L 53.21875 72.90625 
L 63.8125 72.90625 
L 40.375 37.890625 
L 65.375 0 
L 54.78125 0 
L 34.28125 31 
L 13.625 0 
L 2.984375 0 
L 29 38.921875 
z
" id="DejaVuSans-88"/>
       <path d="M 59.515625 10.40625 
L 59.515625 29.984375 
L 43.40625 29.984375 
L 43.40625 38.09375 
L 69.28125 38.09375 
L 69.28125 6.78125 
Q 63.578125 2.734375 56.6875 0.65625 
Q 49.8125 -1.421875 42 -1.421875 
Q 24.90625 -1.421875 15.25 8.5625 
Q 5.609375 18.5625 5.609375 36.375 
Q 5.609375 54.25 15.25 64.234375 
Q 24.90625 74.21875 42 74.21875 
Q 49.125 74.21875 55.546875 72.453125 
Q 61.96875 70.703125 67.390625 67.28125 
L 67.390625 56.78125 
Q 61.921875 61.421875 55.765625 63.765625 
Q 49.609375 66.109375 42.828125 66.109375 
Q 29.4375 66.109375 22.71875 58.640625 
Q 16.015625 51.171875 16.015625 36.375 
Q 16.015625 21.625 22.71875 14.15625 
Q 29.4375 6.6875 42.828125 6.6875 
Q 48.046875 6.6875 52.140625 7.59375 
Q 56.25 8.5 59.515625 10.40625 
z
" id="DejaVuSans-71"/>
       <path d="M 19.671875 34.8125 
L 19.671875 8.109375 
L 35.5 8.109375 
Q 43.453125 8.109375 47.28125 11.40625 
Q 51.125 14.703125 51.125 21.484375 
Q 51.125 28.328125 47.28125 31.5625 
Q 43.453125 34.8125 35.5 34.8125 
z
M 19.671875 64.796875 
L 19.671875 42.828125 
L 34.28125 42.828125 
Q 41.5 42.828125 45.03125 45.53125 
Q 48.578125 48.25 48.578125 53.8125 
Q 48.578125 59.328125 45.03125 62.0625 
Q 41.5 64.796875 34.28125 64.796875 
z
M 9.8125 72.90625 
L 35.015625 72.90625 
Q 46.296875 72.90625 52.390625 68.21875 
Q 58.5 63.53125 58.5 54.890625 
Q 58.5 48.1875 55.375 44.234375 
Q 52.25 40.28125 46.1875 39.3125 
Q 53.46875 37.75 57.5 32.78125 
Q 61.53125 27.828125 61.53125 20.40625 
Q 61.53125 10.640625 54.890625 5.3125 
Q 48.25 0 35.984375 0 
L 9.8125 0 
z
" id="DejaVuSans-66"/>
      </defs>
      <use xlink:href="#DejaVuSans-67"/>
      <use x="69.824219" xlink:href="#DejaVuSans-111"/>
      <use x="131.005859" xlink:href="#DejaVuSans-110"/>
      <use x="194.384766" xlink:href="#DejaVuSans-102"/>
      <use x="229.589844" xlink:href="#DejaVuSans-105"/>
      <use x="257.373047" xlink:href="#DejaVuSans-100"/>
      <use x="320.849609" xlink:href="#DejaVuSans-101"/>
      <use x="382.373047" xlink:href="#DejaVuSans-110"/>
      <use x="445.751953" xlink:href="#DejaVuSans-99"/>
      <use x="500.732422" xlink:href="#DejaVuSans-101"/>
      <use x="562.255859" xlink:href="#DejaVuSans-32"/>
      <use x="594.042969" xlink:href="#DejaVuSans-40"/>
      <use x="633.056641" xlink:href="#DejaVuSans-88"/>
      <use x="701.5625" xlink:href="#DejaVuSans-71"/>
      <use x="779.052734" xlink:href="#DejaVuSans-66"/>
      <use x="847.65625" xlink:href="#DejaVuSans-111"/>
      <use x="908.837891" xlink:href="#DejaVuSans-111"/>
      <use x="970.019531" xlink:href="#DejaVuSans-115"/>
      <use x="1022.119141" xlink:href="#DejaVuSans-116"/>
      <use x="1061.328125" xlink:href="#DejaVuSans-41"/>
     </g>
    </g>
    <g id="line2d_45">
     <path d="M 97.2 183.074063 
L 133.2 183.074063 
" style="fill:none;stroke:#e7298a;stroke-dasharray:5.55,2.4;stroke-dashoffset:0;stroke-width:1.5;"/>
    </g>
    <g id="line2d_46">
     <g>
      <use style="fill:#e7298a;stroke:#e7298a;" x="115.2" xlink:href="#m1a80a96f90" y="183.074063"/>
     </g>
    </g>
    <g id="text_20">
     <!-- Confidence (KNeighbors) -->
     <g transform="translate(147.6 189.374063)scale(0.18 -0.18)">
      <defs>
       <path d="M 9.8125 72.90625 
L 19.671875 72.90625 
L 19.671875 42.09375 
L 52.390625 72.90625 
L 65.09375 72.90625 
L 28.90625 38.921875 
L 67.671875 0 
L 54.6875 0 
L 19.671875 35.109375 
L 19.671875 0 
L 9.8125 0 
z
" id="DejaVuSans-75"/>
       <path d="M 9.8125 72.90625 
L 23.09375 72.90625 
L 55.421875 11.921875 
L 55.421875 72.90625 
L 64.984375 72.90625 
L 64.984375 0 
L 51.703125 0 
L 19.390625 60.984375 
L 19.390625 0 
L 9.8125 0 
z
" id="DejaVuSans-78"/>
       <path d="M 45.40625 27.984375 
Q 45.40625 37.75 41.375 43.109375 
Q 37.359375 48.484375 30.078125 48.484375 
Q 22.859375 48.484375 18.828125 43.109375 
Q 14.796875 37.75 14.796875 27.984375 
Q 14.796875 18.265625 18.828125 12.890625 
Q 22.859375 7.515625 30.078125 7.515625 
Q 37.359375 7.515625 41.375 12.890625 
Q 45.40625 18.265625 45.40625 27.984375 
z
M 54.390625 6.78125 
Q 54.390625 -7.171875 48.1875 -13.984375 
Q 42 -20.796875 29.203125 -20.796875 
Q 24.46875 -20.796875 20.265625 -20.09375 
Q 16.0625 -19.390625 12.109375 -17.921875 
L 12.109375 -9.1875 
Q 16.0625 -11.328125 19.921875 -12.34375 
Q 23.78125 -13.375 27.78125 -13.375 
Q 36.625 -13.375 41.015625 -8.765625 
Q 45.40625 -4.15625 45.40625 5.171875 
L 45.40625 9.625 
Q 42.625 4.78125 38.28125 2.390625 
Q 33.9375 0 27.875 0 
Q 17.828125 0 11.671875 7.65625 
Q 5.515625 15.328125 5.515625 27.984375 
Q 5.515625 40.671875 11.671875 48.328125 
Q 17.828125 56 27.875 56 
Q 33.9375 56 38.28125 53.609375 
Q 42.625 51.21875 45.40625 46.390625 
L 45.40625 54.6875 
L 54.390625 54.6875 
z
" id="DejaVuSans-103"/>
       <path d="M 54.890625 33.015625 
L 54.890625 0 
L 45.90625 0 
L 45.90625 32.71875 
Q 45.90625 40.484375 42.875 44.328125 
Q 39.84375 48.1875 33.796875 48.1875 
Q 26.515625 48.1875 22.3125 43.546875 
Q 18.109375 38.921875 18.109375 30.90625 
L 18.109375 0 
L 9.078125 0 
L 9.078125 75.984375 
L 18.109375 75.984375 
L 18.109375 46.1875 
Q 21.34375 51.125 25.703125 53.5625 
Q 30.078125 56 35.796875 56 
Q 45.21875 56 50.046875 50.171875 
Q 54.890625 44.34375 54.890625 33.015625 
z
" id="DejaVuSans-104"/>
       <path d="M 48.6875 27.296875 
Q 48.6875 37.203125 44.609375 42.84375 
Q 40.53125 48.484375 33.40625 48.484375 
Q 26.265625 48.484375 22.1875 42.84375 
Q 18.109375 37.203125 18.109375 27.296875 
Q 18.109375 17.390625 22.1875 11.75 
Q 26.265625 6.109375 33.40625 6.109375 
Q 40.53125 6.109375 44.609375 11.75 
Q 48.6875 17.390625 48.6875 27.296875 
z
M 18.109375 46.390625 
Q 20.953125 51.265625 25.265625 53.625 
Q 29.59375 56 35.59375 56 
Q 45.5625 56 51.78125 48.09375 
Q 58.015625 40.1875 58.015625 27.296875 
Q 58.015625 14.40625 51.78125 6.484375 
Q 45.5625 -1.421875 35.59375 -1.421875 
Q 29.59375 -1.421875 25.265625 0.953125 
Q 20.953125 3.328125 18.109375 8.203125 
L 18.109375 0 
L 9.078125 0 
L 9.078125 75.984375 
L 18.109375 75.984375 
z
" id="DejaVuSans-98"/>
      </defs>
      <use xlink:href="#DejaVuSans-67"/>
      <use x="69.824219" xlink:href="#DejaVuSans-111"/>
      <use x="131.005859" xlink:href="#DejaVuSans-110"/>
      <use x="194.384766" xlink:href="#DejaVuSans-102"/>
      <use x="229.589844" xlink:href="#DejaVuSans-105"/>
      <use x="257.373047" xlink:href="#DejaVuSans-100"/>
      <use x="320.849609" xlink:href="#DejaVuSans-101"/>
      <use x="382.373047" xlink:href="#DejaVuSans-110"/>
      <use x="445.751953" xlink:href="#DejaVuSans-99"/>
      <use x="500.732422" xlink:href="#DejaVuSans-101"/>
      <use x="562.255859" xlink:href="#DejaVuSans-32"/>
      <use x="594.042969" xlink:href="#DejaVuSans-40"/>
      <use x="633.056641" xlink:href="#DejaVuSans-75"/>
      <use x="698.632812" xlink:href="#DejaVuSans-78"/>
      <use x="773.4375" xlink:href="#DejaVuSans-101"/>
      <use x="834.960938" xlink:href="#DejaVuSans-105"/>
      <use x="862.744141" xlink:href="#DejaVuSans-103"/>
      <use x="926.220703" xlink:href="#DejaVuSans-104"/>
      <use x="989.599609" xlink:href="#DejaVuSans-98"/>
      <use x="1053.076172" xlink:href="#DejaVuSans-111"/>
      <use x="1114.257812" xlink:href="#DejaVuSans-114"/>
      <use x="1155.371094" xlink:href="#DejaVuSans-115"/>
      <use x="1207.470703" xlink:href="#DejaVuSans-41"/>
     </g>
    </g>
    <g id="line2d_47">
     <path d="M 97.2 209.494687 
L 133.2 209.494687 
" style="fill:none;stroke:#66a61e;stroke-dasharray:5.55,2.4;stroke-dashoffset:0;stroke-width:1.5;"/>
    </g>
    <g id="line2d_48">
     <g>
      <use style="fill:#66a61e;stroke:#66a61e;" x="115.2" xlink:href="#m70dac03e1b" y="209.494687"/>
     </g>
    </g>
    <g id="text_21">
     <!-- Confidence (SVM) -->
     <g transform="translate(147.6 215.794688)scale(0.18 -0.18)">
      <defs>
       <path d="M 53.515625 70.515625 
L 53.515625 60.890625 
Q 47.90625 63.578125 42.921875 64.890625 
Q 37.9375 66.21875 33.296875 66.21875 
Q 25.25 66.21875 20.875 63.09375 
Q 16.5 59.96875 16.5 54.203125 
Q 16.5 49.359375 19.40625 46.890625 
Q 22.3125 44.4375 30.421875 42.921875 
L 36.375 41.703125 
Q 47.40625 39.59375 52.65625 34.296875 
Q 57.90625 29 57.90625 20.125 
Q 57.90625 9.515625 50.796875 4.046875 
Q 43.703125 -1.421875 29.984375 -1.421875 
Q 24.8125 -1.421875 18.96875 -0.25 
Q 13.140625 0.921875 6.890625 3.21875 
L 6.890625 13.375 
Q 12.890625 10.015625 18.65625 8.296875 
Q 24.421875 6.59375 29.984375 6.59375 
Q 38.421875 6.59375 43.015625 9.90625 
Q 47.609375 13.234375 47.609375 19.390625 
Q 47.609375 24.75 44.3125 27.78125 
Q 41.015625 30.8125 33.5 32.328125 
L 27.484375 33.5 
Q 16.453125 35.6875 11.515625 40.375 
Q 6.59375 45.0625 6.59375 53.421875 
Q 6.59375 63.09375 13.40625 68.65625 
Q 20.21875 74.21875 32.171875 74.21875 
Q 37.3125 74.21875 42.625 73.28125 
Q 47.953125 72.359375 53.515625 70.515625 
z
" id="DejaVuSans-83"/>
      </defs>
      <use xlink:href="#DejaVuSans-67"/>
      <use x="69.824219" xlink:href="#DejaVuSans-111"/>
      <use x="131.005859" xlink:href="#DejaVuSans-110"/>
      <use x="194.384766" xlink:href="#DejaVuSans-102"/>
      <use x="229.589844" xlink:href="#DejaVuSans-105"/>
      <use x="257.373047" xlink:href="#DejaVuSans-100"/>
      <use x="320.849609" xlink:href="#DejaVuSans-101"/>
      <use x="382.373047" xlink:href="#DejaVuSans-110"/>
      <use x="445.751953" xlink:href="#DejaVuSans-99"/>
      <use x="500.732422" xlink:href="#DejaVuSans-101"/>
      <use x="562.255859" xlink:href="#DejaVuSans-32"/>
      <use x="594.042969" xlink:href="#DejaVuSans-40"/>
      <use x="633.056641" xlink:href="#DejaVuSans-83"/>
      <use x="696.533203" xlink:href="#DejaVuSans-86"/>
      <use x="764.941406" xlink:href="#DejaVuSans-77"/>
      <use x="851.220703" xlink:href="#DejaVuSans-41"/>
     </g>
    </g>
    <g id="line2d_49">
     <path d="M 97.2 235.915312 
L 133.2 235.915312 
" style="fill:none;stroke:#e6ab02;stroke-dasharray:5.55,2.4;stroke-dashoffset:0;stroke-width:1.5;"/>
    </g>
    <g id="line2d_50">
     <g>
      <use style="fill:#e6ab02;stroke:#e6ab02;" x="115.2" xlink:href="#m886be1d1b2" y="235.915312"/>
     </g>
    </g>
    <g id="text_22">
     <!-- Confidence (FCNN) -->
     <g transform="translate(147.6 242.215313)scale(0.18 -0.18)">
      <use xlink:href="#DejaVuSans-67"/>
      <use x="69.824219" xlink:href="#DejaVuSans-111"/>
      <use x="131.005859" xlink:href="#DejaVuSans-110"/>
      <use x="194.384766" xlink:href="#DejaVuSans-102"/>
      <use x="229.589844" xlink:href="#DejaVuSans-105"/>
      <use x="257.373047" xlink:href="#DejaVuSans-100"/>
      <use x="320.849609" xlink:href="#DejaVuSans-101"/>
      <use x="382.373047" xlink:href="#DejaVuSans-110"/>
      <use x="445.751953" xlink:href="#DejaVuSans-99"/>
      <use x="500.732422" xlink:href="#DejaVuSans-101"/>
      <use x="562.255859" xlink:href="#DejaVuSans-32"/>
      <use x="594.042969" xlink:href="#DejaVuSans-40"/>
      <use x="633.056641" xlink:href="#DejaVuSans-70"/>
      <use x="690.576172" xlink:href="#DejaVuSans-67"/>
      <use x="760.400391" xlink:href="#DejaVuSans-78"/>
      <use x="835.205078" xlink:href="#DejaVuSans-78"/>
      <use x="910.009766" xlink:href="#DejaVuSans-41"/>
     </g>
    </g>
    <g id="line2d_51">
     <path d="M 97.2 262.335938 
L 133.2 262.335938 
" style="fill:none;stroke:#a6761d;stroke-dasharray:5.55,2.4;stroke-dashoffset:0;stroke-width:1.5;"/>
    </g>
    <g id="line2d_52">
     <g>
      <use style="fill:#a6761d;stroke:#a6761d;" x="115.2" xlink:href="#m7e52569c75" y="262.335938"/>
     </g>
    </g>
    <g id="text_23">
     <!-- Confidence (MC Dropout (20)) -->
     <g transform="translate(147.6 268.635938)scale(0.18 -0.18)">
      <defs>
       <path d="M 18.109375 8.203125 
L 18.109375 -20.796875 
L 9.078125 -20.796875 
L 9.078125 54.6875 
L 18.109375 54.6875 
L 18.109375 46.390625 
Q 20.953125 51.265625 25.265625 53.625 
Q 29.59375 56 35.59375 56 
Q 45.5625 56 51.78125 48.09375 
Q 58.015625 40.1875 58.015625 27.296875 
Q 58.015625 14.40625 51.78125 6.484375 
Q 45.5625 -1.421875 35.59375 -1.421875 
Q 29.59375 -1.421875 25.265625 0.953125 
Q 20.953125 3.328125 18.109375 8.203125 
z
M 48.6875 27.296875 
Q 48.6875 37.203125 44.609375 42.84375 
Q 40.53125 48.484375 33.40625 48.484375 
Q 26.265625 48.484375 22.1875 42.84375 
Q 18.109375 37.203125 18.109375 27.296875 
Q 18.109375 17.390625 22.1875 11.75 
Q 26.265625 6.109375 33.40625 6.109375 
Q 40.53125 6.109375 44.609375 11.75 
Q 48.6875 17.390625 48.6875 27.296875 
z
" id="DejaVuSans-112"/>
       <path d="M 8.5 21.578125 
L 8.5 54.6875 
L 17.484375 54.6875 
L 17.484375 21.921875 
Q 17.484375 14.15625 20.5 10.265625 
Q 23.53125 6.390625 29.59375 6.390625 
Q 36.859375 6.390625 41.078125 11.03125 
Q 45.3125 15.671875 45.3125 23.6875 
L 45.3125 54.6875 
L 54.296875 54.6875 
L 54.296875 0 
L 45.3125 0 
L 45.3125 8.40625 
Q 42.046875 3.421875 37.71875 1 
Q 33.40625 -1.421875 27.6875 -1.421875 
Q 18.265625 -1.421875 13.375 4.4375 
Q 8.5 10.296875 8.5 21.578125 
z
M 31.109375 56 
z
" id="DejaVuSans-117"/>
      </defs>
      <use xlink:href="#DejaVuSans-67"/>
      <use x="69.824219" xlink:href="#DejaVuSans-111"/>
      <use x="131.005859" xlink:href="#DejaVuSans-110"/>
      <use x="194.384766" xlink:href="#DejaVuSans-102"/>
      <use x="229.589844" xlink:href="#DejaVuSans-105"/>
      <use x="257.373047" xlink:href="#DejaVuSans-100"/>
      <use x="320.849609" xlink:href="#DejaVuSans-101"/>
      <use x="382.373047" xlink:href="#DejaVuSans-110"/>
      <use x="445.751953" xlink:href="#DejaVuSans-99"/>
      <use x="500.732422" xlink:href="#DejaVuSans-101"/>
      <use x="562.255859" xlink:href="#DejaVuSans-32"/>
      <use x="594.042969" xlink:href="#DejaVuSans-40"/>
      <use x="633.056641" xlink:href="#DejaVuSans-77"/>
      <use x="719.335938" xlink:href="#DejaVuSans-67"/>
      <use x="789.160156" xlink:href="#DejaVuSans-32"/>
      <use x="820.947266" xlink:href="#DejaVuSans-68"/>
      <use x="897.949219" xlink:href="#DejaVuSans-114"/>
      <use x="936.8125" xlink:href="#DejaVuSans-111"/>
      <use x="997.994141" xlink:href="#DejaVuSans-112"/>
      <use x="1061.470703" xlink:href="#DejaVuSans-111"/>
      <use x="1122.652344" xlink:href="#DejaVuSans-117"/>
      <use x="1186.03125" xlink:href="#DejaVuSans-116"/>
      <use x="1225.240234" xlink:href="#DejaVuSans-32"/>
      <use x="1257.027344" xlink:href="#DejaVuSans-40"/>
      <use x="1296.041016" xlink:href="#DejaVuSans-50"/>
      <use x="1359.664062" xlink:href="#DejaVuSans-48"/>
      <use x="1423.287109" xlink:href="#DejaVuSans-41"/>
      <use x="1462.300781" xlink:href="#DejaVuSans-41"/>
     </g>
    </g>
    <g id="line2d_53">
     <path d="M 97.2 288.756563 
L 133.2 288.756563 
" style="fill:none;stroke:#666666;stroke-dasharray:5.55,2.4;stroke-dashoffset:0;stroke-width:1.5;"/>
    </g>
    <g id="line2d_54">
     <g>
      <use style="fill:#666666;stroke:#666666;" x="115.2" xlink:href="#mcbdcd736cc" y="288.756563"/>
     </g>
    </g>
    <g id="text_24">
     <!-- Confidence (Ensemble (10)) -->
     <g transform="translate(147.6 295.056563)scale(0.18 -0.18)">
      <defs>
       <path d="M 9.8125 72.90625 
L 55.90625 72.90625 
L 55.90625 64.59375 
L 19.671875 64.59375 
L 19.671875 43.015625 
L 54.390625 43.015625 
L 54.390625 34.71875 
L 19.671875 34.71875 
L 19.671875 8.296875 
L 56.78125 8.296875 
L 56.78125 0 
L 9.8125 0 
z
" id="DejaVuSans-69"/>
      </defs>
      <use xlink:href="#DejaVuSans-67"/>
      <use x="69.824219" xlink:href="#DejaVuSans-111"/>
      <use x="131.005859" xlink:href="#DejaVuSans-110"/>
      <use x="194.384766" xlink:href="#DejaVuSans-102"/>
      <use x="229.589844" xlink:href="#DejaVuSans-105"/>
      <use x="257.373047" xlink:href="#DejaVuSans-100"/>
      <use x="320.849609" xlink:href="#DejaVuSans-101"/>
      <use x="382.373047" xlink:href="#DejaVuSans-110"/>
      <use x="445.751953" xlink:href="#DejaVuSans-99"/>
      <use x="500.732422" xlink:href="#DejaVuSans-101"/>
      <use x="562.255859" xlink:href="#DejaVuSans-32"/>
      <use x="594.042969" xlink:href="#DejaVuSans-40"/>
      <use x="633.056641" xlink:href="#DejaVuSans-69"/>
      <use x="696.240234" xlink:href="#DejaVuSans-110"/>
      <use x="759.619141" xlink:href="#DejaVuSans-115"/>
      <use x="811.71875" xlink:href="#DejaVuSans-101"/>
      <use x="873.242188" xlink:href="#DejaVuSans-109"/>
      <use x="970.654297" xlink:href="#DejaVuSans-98"/>
      <use x="1034.130859" xlink:href="#DejaVuSans-108"/>
      <use x="1061.914062" xlink:href="#DejaVuSans-101"/>
      <use x="1123.4375" xlink:href="#DejaVuSans-32"/>
      <use x="1155.224609" xlink:href="#DejaVuSans-40"/>
      <use x="1194.238281" xlink:href="#DejaVuSans-49"/>
      <use x="1257.861328" xlink:href="#DejaVuSans-48"/>
      <use x="1321.484375" xlink:href="#DejaVuSans-41"/>
      <use x="1360.498047" xlink:href="#DejaVuSans-41"/>
     </g>
    </g>
   </g>
  </g>
 </g>
 <defs>
  <clipPath id="p803f6058ef">
   <rect height="271.8" width="502.2" x="81" y="43.2"/>
  </clipPath>
 </defs>
</svg>
